<svg xmlns="http://www.w3.org/2000/svg" viewBox="0 0 48 48" role="img" aria-label="Projects">
  <defs>
    <linearGradient id="azp-bg" x1="0" y1="0" x2="1" y2="1">
      <stop offset="0%" stop-color="#e6c886"/>
      <stop offset="100%" stop-color="#b8902e"/>
    </linearGradient>
  </defs>
  <rect x="1" y="1" width="46" height="46" rx="4" fill="url(#azp-bg)" stroke="#6a4a1a" stroke-width="1"/>
  <!-- Folder tab -->
  <path d="M6 14 L20 14 L22 17 L42 17 L42 40 L6 40 Z" fill="#1a5fd6" stroke="#0a2a7a" stroke-width="0.8"/>
  <!-- Folder front -->
  <rect x="8" y="20" width="32" height="20" fill="#316ac5" stroke="#0a2a7a" stroke-width="0.8"/>
  <!-- Pixel grid inside -->
  <g fill="#9bc4ff">
    <rect x="13" y="24" width="3" height="3"/>
    <rect x="19" y="24" width="3" height="3"/>
    <rect x="25" y="24" width="3" height="3"/>
    <rect x="31" y="24" width="3" height="3"/>
    <rect x="13" y="30" width="3" height="3"/>
    <rect x="25" y="30" width="3" height="3"/>
    <rect x="31" y="30" width="3" height="3"/>
    <rect x="19" y="36" width="3" height="3"/>
    <rect x="31" y="36" width="3" height="3"/>
  </g>
</svg>